<?xml version="1.0" encoding="utf-8"?>
<!-- Generator: Adobe Illustrator 21.1.0, SVG Export Plug-In . SVG Version: 6.00 Build 0)  -->
<svg version="1.1" baseProfile="tiny" id="Layer_1" xmlns="http://www.w3.org/2000/svg" xmlns:xlink="http://www.w3.org/1999/xlink"
	 x="0px" y="0px" viewBox="0 0 600 158" xml:space="preserve">
<g>
	<path fill="#1A1A1A" d="M541.6,0h-57v158h11.7V98.4h42.4c32.8,0,61.3-17,61.3-50V48C600,17.7,576.2,0,541.6,0z M588.3,49.1
		c0,23.3-19.8,38.6-49,38.6h-43.1V10.8h44.5c28.3,0,47.6,13,47.6,37.9V49.1z"/>
	<path fill="#1A1A1A" d="M86.7,4.9l-0.1-0.2l0,0C85.2,1.9,82.3,0,78.9,0c-3.5,0-6.5,2-7.9,5l-0.1,0L0,158h12.1L78.6,12.7l41.3,90.8
		l24.9,54.5h12.8L87,5.4C86.9,5.3,86.8,5.1,86.7,4.9z"/>
	<path fill="#1A1A1A" d="M381.7,0c-2.2,0-4.2,1.1-5.4,2.8l-61.9,91.1L252.4,2.8C251.2,1.1,249.2,0,247,0c-3.7,0-6.7,2.8-6.7,6.5V158
		h11.2V21.7l62.2,90.3h0.9l62.2-90.3V158h11.7V6.5C388.5,2.8,385.5,0,381.7,0z"/>
</g>
</svg>
